<?xml version="1.0" standalone="no"?>
<!DOCTYPE svg PUBLIC "-//W3C//DTD SVG 20010904//EN"
 "http://www.w3.org/TR/2001/REC-SVG-20010904/DTD/svg10.dtd">
<svg version="1.0" xmlns="http://www.w3.org/2000/svg"
 width="513.000000pt" height="513.000000pt" viewBox="0 0 513.000000 513.000000"
 preserveAspectRatio="xMidYMid meet">
<metadata>
Created by potrace 1.14, written by Peter Selinger 2001-2017
</metadata>
<g transform="translate(0.000000,513.000000) scale(0.100000,-0.100000)"
fill="#000000" stroke="none">
<path d="M1334 5074 c-21 -31 -62 -99 -90 -153 -35 -66 -61 -103 -85 -119 -20
-14 -34 -32 -35 -45 0 -12 -17 -39 -38 -61 -24 -25 -35 -44 -31 -56 4 -12 -5
-30 -25 -51 -16 -19 -30 -37 -30 -41 0 -3 -8 -9 -18 -12 -11 -4 -25 -18 -32
-31 -7 -14 -19 -25 -25 -25 -6 0 -17 -16 -25 -35 -12 -30 -15 -32 -25 -18 -9
12 -14 13 -20 3 -4 -7 -2 -16 6 -21 11 -7 12 -10 1 -21 -11 -11 -13 -10 -10 1
6 27 -29 24 -36 -3 -3 -13 -9 -32 -13 -42 -5 -13 -3 -15 7 -9 9 5 11 4 6 -4
-4 -6 -11 -9 -16 -6 -12 7 -63 -64 -56 -80 3 -8 -4 -31 -15 -50 -13 -21 -18
-42 -14 -53 6 -15 8 -15 17 5 10 20 46 38 57 28 2 -3 -1 -5 -7 -5 -7 0 -12 -7
-12 -15 0 -8 5 -15 10 -15 6 0 13 7 16 15 4 8 19 15 34 15 16 0 32 5 35 10 3
6 19 10 35 10 31 0 43 -19 34 -56 -3 -13 -1 -31 5 -38 8 -10 9 -16 1 -21 -5
-3 -10 -13 -10 -20 0 -20 28 -7 35 16 12 37 27 20 20 -23 -7 -40 -25 -77 -25
-50 0 7 -4 12 -9 12 -5 0 -8 -26 -7 -57 2 -32 4 -80 5 -108 2 -44 4 -47 13
-27 6 12 15 22 20 22 12 0 10 -7 -17 -58 -14 -26 -25 -54 -25 -63 0 -9 -9 -28
-20 -42 -11 -14 -20 -29 -20 -33 0 -12 -81 -117 -114 -146 -38 -35 -32 -35 35
2 30 16 57 30 62 30 16 0 5 -23 -24 -52 -64 -64 -179 -269 -179 -319 0 -37 13
-43 36 -18 29 32 55 43 64 29 6 -9 11 -6 20 11 18 34 62 79 71 73 5 -2 4 -17
-2 -31 -5 -15 -12 -72 -15 -127 -2 -56 -7 -108 -9 -117 -3 -9 4 -24 16 -35 35
-31 41 -50 17 -51 -12 -1 -25 -8 -29 -15 -6 -9 -9 -6 -9 10 0 15 -6 22 -20 22
-12 0 -24 -10 -29 -22 -5 -13 -40 -50 -77 -83 -101 -90 -161 -154 -181 -192
-35 -67 -48 -89 -75 -125 -16 -19 -28 -45 -28 -56 0 -12 -6 -21 -13 -20 -7 2
-12 -9 -12 -29 0 -17 -3 -35 -8 -39 -10 -10 -9 -24 2 -24 5 0 19 16 31 35 12
19 31 40 41 46 21 11 22 8 2 -96 -5 -25 -4 -28 9 -17 12 10 18 10 27 -1 6 -8
8 -16 5 -20 -10 -10 6 -44 35 -74 29 -30 38 -52 86 -205 18 -59 38 -99 61
-125 28 -32 33 -35 34 -18 1 20 1 20 16 0 8 -11 12 -25 10 -32 -3 -7 -1 -15 4
-18 6 -4 10 5 10 18 0 14 7 40 15 58 14 34 14 33 16 -46 1 -83 24 -203 29
-155 2 14 2 35 1 48 -1 12 3 22 10 22 13 0 3 74 -14 102 -9 13 -8 21 1 30 15
15 16 50 1 65 -8 8 -8 13 0 17 17 11 13 29 -5 22 -13 -5 -15 -2 -10 16 3 13 6
26 6 30 0 4 7 5 15 2 10 -4 15 0 15 12 0 11 10 39 21 64 19 39 22 43 29 25 l9
-20 1 20 c2 28 9 67 16 85 12 32 114 -115 114 -164 -1 -12 -7 -32 -15 -46 -20
-36 -19 -42 20 -86 28 -31 34 -44 29 -64 -4 -14 -8 -52 -9 -85 -3 -76 -9 -90
-48 -105 -48 -18 -80 -31 -100 -41 -18 -10 -32 12 -44 74 -11 52 -23 38 -20
-25 l2 -62 -43 -23 c-44 -24 -122 -31 -122 -12 0 6 9 8 20 4 16 -5 20 -2 20
19 0 21 -5 26 -25 26 -14 0 -24 -3 -23 -7 1 -5 -5 -21 -12 -36 -9 -19 -16 -24
-21 -15 -4 6 -4 19 1 29 5 9 6 19 3 23 -3 3 -2 6 4 6 6 0 13 12 16 26 5 27
-14 54 -39 54 -8 0 -14 4 -14 10 0 5 -9 14 -21 20 -16 9 -25 8 -40 -6 -10 -9
-19 -23 -19 -31 0 -7 -4 -13 -10 -13 -14 0 -12 -48 2 -52 9 -3 8 -9 -5 -22
-18 -18 -21 -58 -7 -91 7 -17 9 -17 9 -2 1 9 5 17 10 17 5 0 11 6 14 12 2 7 3
5 2 -4 -2 -10 1 -18 5 -18 11 0 1 -37 -14 -49 -6 -5 -22 -12 -36 -16 l-25 -6
9 142 9 142 -24 18 c-34 26 -39 24 -39 -18 -1 -21 -5 -58 -11 -83 -6 -25 -13
-81 -15 -124 -3 -46 -12 -89 -21 -102 -18 -28 -12 -31 12 -8 24 25 30 9 7 -21
-12 -15 -23 -21 -27 -15 -3 6 -11 8 -16 5 -5 -4 -9 -1 -9 4 0 6 -4 11 -10 11
-5 0 -10 -7 -10 -15 0 -8 -5 -15 -11 -15 -5 0 -7 5 -4 10 3 6 -3 10 -14 10
-22 0 -27 -10 -13 -25 5 -6 14 -29 21 -53 11 -38 20 -47 45 -43 5 1 6 -12 3
-29 -4 -16 -1 -42 5 -58 6 -15 14 -52 17 -82 4 -38 11 -55 21 -57 8 -1 41 -5
73 -8 51 -6 59 -10 73 -37 8 -16 13 -32 11 -35 -3 -2 -30 0 -61 6 -86 16 -106
-1 -66 -52 11 -14 20 -30 20 -35 0 -5 7 -15 15 -22 20 -17 19 -27 -4 -39 -14
-8 -33 -4 -77 15 -52 23 -62 32 -85 77 -22 46 -29 52 -60 54 -66 5 -184 27
-217 40 l-32 13 0 -250 0 -250 24 -10 c13 -5 27 -14 31 -21 10 -16 17 -109 9
-139 l-5 -24 -30 33 -29 34 0 -197 0 -196 1740 0 c1461 0 1740 2 1740 14 0 7
-11 30 -25 50 -27 40 -25 56 6 56 24 0 72 -45 67 -62 -3 -7 5 -22 16 -35 19
-23 22 -23 253 -23 l233 0 -13 28 c-6 15 -17 33 -24 40 -7 7 -13 26 -13 42 0
16 -5 32 -10 35 -12 7 -37 62 -56 125 -20 62 -37 100 -46 100 -5 0 -8 11 -8
24 0 19 -4 23 -20 19 -13 -4 -20 0 -20 10 0 8 -7 21 -17 28 -15 13 -16 11 -11
-14 3 -15 1 -30 -3 -33 -5 -3 -9 0 -9 6 0 6 -5 8 -10 5 -6 -4 -10 -3 -9 2 4
16 -23 73 -34 73 -8 0 -13 25 -15 68 -2 37 -7 71 -13 77 -5 5 -9 16 -9 25 0 8
-9 22 -20 30 -11 8 -20 22 -20 31 0 9 -9 28 -20 42 -25 31 -25 37 -1 37 17 0
49 27 40 34 -20 15 -55 36 -61 36 -5 0 -8 -15 -8 -34 0 -19 -4 -37 -9 -41 -18
-10 -60 18 -72 49 -7 17 -19 37 -28 45 -14 12 -12 13 14 7 17 -4 25 -3 20 1
-24 18 -162 107 -192 124 -18 11 -49 28 -69 39 -19 11 -46 27 -59 36 -22 15
-23 14 -18 -6 3 -12 13 -24 22 -28 9 -3 31 -18 50 -33 18 -15 40 -25 47 -22
10 4 12 0 8 -11 -8 -20 -11 -20 -53 3 -28 15 -40 16 -63 7 -50 -19 -63 -1 -63
85 -1 55 -6 81 -19 102 -37 55 -1 136 82 184 26 14 54 32 62 39 8 7 52 32 98
57 l84 44 -49 39 c-26 22 -57 47 -68 57 -57 52 -226 160 -380 242 -113 60
-114 61 -108 88 4 21 4 22 -11 3 -9 -11 -16 -14 -16 -7 0 7 -5 9 -12 5 -8 -5
-9 3 -5 29 3 21 2 37 -4 37 -5 0 -9 9 -9 20 0 12 7 20 16 20 10 0 14 6 10 15
-7 19 3 47 15 40 4 -3 6 -12 3 -20 -3 -7 0 -22 6 -32 11 -17 11 -17 6 0 -8 24
4 44 14 26 6 -9 12 -9 25 4 19 20 29 22 19 5 -4 -6 3 -4 16 5 16 11 29 13 47
6 39 -15 38 -12 -21 46 -30 30 -58 55 -61 55 -2 0 -13 7 -24 16 -19 16 -17 26
11 70 7 11 50 6 113 -13 12 -4 2 11 -27 39 -26 25 -55 65 -66 89 -34 77 -35
85 -7 103 14 9 25 24 25 34 0 12 13 4 42 -27 42 -42 62 -41 39 2 -6 12 -15 42
-19 67 l-7 45 67 64 c38 35 83 86 100 112 17 27 33 48 34 46 2 -1 32 -61 68
-132 47 -93 65 -122 66 -103 0 15 -6 45 -14 65 -15 40 -36 172 -36 227 0 34
29 137 41 146 3 3 10 18 16 34 l9 29 27 -56 c15 -32 31 -57 37 -57 13 0 13 9
-6 114 -8 48 -13 91 -10 94 3 3 33 -22 66 -54 66 -65 80 -73 80 -51 0 9 6 18
13 20 6 3 3 6 -9 6 -64 3 -123 209 -91 324 7 25 37 39 37 17 0 -24 106 -100
139 -100 11 0 23 -4 26 -10 10 -16 26 -11 23 8 -2 11 4 18 20 20 12 2 26 12
32 21 12 24 57 33 97 19 28 -10 32 -17 39 -62 13 -87 16 -77 -53 -155 -29 -33
-56 -51 -123 -79 l-25 -11 25 0 c14 0 56 6 95 14 38 8 71 15 72 15 2 0 3 -7 3
-16 0 -11 6 -15 19 -11 14 3 18 1 14 -9 -3 -8 -9 -14 -14 -14 -5 0 -9 -4 -9
-10 0 -5 7 -10 15 -10 23 0 18 -12 -17 -42 -18 -15 -30 -30 -27 -33 3 -3 18 6
33 20 15 14 30 25 33 25 3 0 28 14 54 31 45 28 51 30 84 19 42 -14 37 -30 -10
-30 -19 0 -37 -4 -40 -10 -10 -17 98 -12 122 5 22 15 23 14 55 -47 86 -167
129 -263 126 -282 -4 -30 -71 -63 -153 -76 -173 -27 -210 -51 -211 -133 0 -45
-4 -54 -34 -78 -28 -23 -31 -31 -21 -43 7 -8 10 -24 7 -34 -4 -11 -2 -30 3
-43 6 -15 10 -18 10 -8 1 9 7 22 15 28 11 9 16 2 26 -34 15 -54 25 -63 40 -35
7 12 18 19 25 16 8 -3 17 -1 20 4 4 6 18 10 32 10 18 0 24 -4 19 -15 -3 -8 -1
-15 4 -15 6 0 10 4 10 10 0 5 11 12 25 16 14 3 25 10 25 15 0 5 7 9 15 9 18 0
19 -12 3 -28 -19 -19 -3 -23 28 -7 40 20 45 19 38 -10 -4 -15 -2 -25 5 -25 6
0 8 -7 5 -15 -4 -8 -1 -15 5 -15 6 0 11 5 11 11 0 7 11 9 29 6 25 -5 28 -3 24
14 -4 14 -1 18 10 13 8 -3 18 -1 22 5 3 6 -1 11 -9 11 -18 0 -22 25 -5 36 6 3
10 32 8 68 -1 33 3 74 9 89 7 16 12 34 12 42 0 31 21 22 69 -31 28 -31 62 -57
76 -60 35 -6 32 17 -5 45 -17 12 -28 26 -25 32 4 5 20 -1 38 -14 36 -27 67
-40 67 -29 0 4 -29 36 -64 70 -36 35 -72 79 -81 98 -17 36 -32 43 -41 19 -4
-8 -13 -15 -20 -15 -11 0 -12 4 -5 19 12 21 5 31 -21 31 -18 0 -25 29 -10 44
4 4 8 17 9 29 1 12 5 36 9 54 5 24 2 35 -14 49 -12 10 -19 21 -16 26 3 5 7 31
10 58 5 62 28 112 49 104 9 -4 15 0 15 9 0 8 -6 17 -12 19 -9 3 -8 9 5 22 9
10 17 24 17 32 0 8 10 14 23 14 19 0 30 -13 59 -72 19 -40 39 -83 44 -96 8
-20 12 -21 27 -10 11 9 19 33 23 76 7 63 16 75 32 46 13 -24 26 1 13 25 -7 13
-8 28 -2 43 l10 23 0 -24 c1 -31 17 -17 27 23 6 23 4 27 -7 21 -12 -8 -12 -6
0 8 21 26 38 20 62 -23 12 -22 24 -38 27 -36 2 2 -2 15 -9 28 -7 12 -12 35
-11 51 2 24 -6 32 -30 28 -5 0 -8 4 -8 9 0 6 7 10 16 10 13 0 15 6 10 28 -15
64 -18 110 -7 131 9 16 9 31 1 59 -7 20 -10 55 -8 77 l3 40 17 -45 16 -45 0
60 c0 33 -7 70 -14 82 -17 27 -17 33 -4 33 6 0 10 -6 10 -14 0 -18 27 -28 36
-14 4 7 2 14 -4 16 -6 2 -9 9 -6 17 4 10 0 12 -15 8 -14 -3 -21 -1 -21 9 0 7
-8 30 -19 51 -10 20 -22 52 -25 71 -13 67 -66 138 -101 134 -14 -2 -20 3 -20
17 0 11 -4 26 -8 33 -5 7 -4 19 3 27 15 18 15 85 1 185 -6 41 -12 81 -13 88
-1 6 -4 12 -7 12 -3 0 -6 17 -6 38 1 20 -4 51 -11 67 -6 17 -12 35 -13 40 -1
6 -16 38 -32 73 -16 35 -29 68 -29 73 0 14 -40 91 -57 111 -8 9 -20 14 -27 12
-7 -3 -19 2 -26 11 -24 29 -28 14 -23 -81 6 -114 -8 -123 -42 -28 -25 68 -89
189 -118 222 -15 16 -17 22 -6 22 15 0 79 -72 79 -89 0 -6 5 -11 10 -11 20 0
-17 124 -57 193 -2 4 16 16 41 27 25 12 47 29 50 40 3 11 9 29 12 40 4 14 1
20 -10 20 -10 0 -16 -9 -16 -24 0 -27 -29 -59 -31 -35 -1 8 -3 21 -4 29 -1 8
-3 21 -4 28 -1 8 -25 12 -82 12 -66 0 -86 -4 -111 -21 -31 -23 -49 -19 -28 6
11 13 -20 15 -288 15 l-301 0 -56 -46 c-31 -25 -59 -44 -61 -41 -2 2 11 21 31
42 19 22 35 40 35 42 0 2 -434 3 -964 3 l-964 0 -38 -56z m2586 36 c0 -5 -7
-10 -15 -10 -8 0 -15 5 -15 10 0 6 7 10 15 10 8 0 15 -4 15 -10z m-145 -90
c-3 -5 -11 -10 -16 -10 -6 0 -7 5 -4 10 3 6 11 10 16 10 6 0 7 -4 4 -10z
m-2605 -244 c0 -2 -9 -6 -20 -9 -11 -3 -20 -1 -20 4 0 5 9 9 20 9 11 0 20 -2
20 -4z m-150 -531 c0 -3 -8 -22 -17 -43 -9 -20 -20 -46 -25 -57 -5 -13 -6 -3
-3 25 2 24 9 46 14 48 6 2 11 10 11 18 0 8 5 14 10 14 6 0 10 -2 10 -5z m1160
-281 l25 -15 -25 5 c-14 3 -33 6 -42 6 -10 0 -18 5 -18 10 0 15 31 12 60 -6z
m-35 -58 c29 -12 29 -13 9 -24 -11 -6 -36 -24 -54 -39 -94 -78 -107 -103 -54
-103 29 0 30 -7 4 -40 -11 -14 -20 -30 -20 -36 0 -7 -10 -14 -22 -18 -30 -7
-10 -28 27 -28 l26 0 -23 -25 c-19 -21 -23 -22 -28 -8 -5 14 -9 13 -25 -9 -11
-14 -27 -26 -37 -26 -9 0 -18 -6 -21 -12 -8 -25 -34 11 -40 53 -6 47 7 90 60
197 58 119 116 153 198 118z m2445 -37 c0 -10 -4 -19 -10 -19 -5 0 -10 12 -10
26 0 14 4 23 10 19 6 -3 10 -15 10 -26z m-823 -31 c-3 -8 -6 -5 -6 6 -1 11 2
17 5 13 3 -3 4 -12 1 -19z m644 -35 c-11 -21 -20 -35 -21 -31 0 12 33 78 38
74 2 -2 -6 -21 -17 -43z m-608 -10 c-7 -2 -19 -2 -25 0 -7 3 -2 5 12 5 14 0
19 -2 13 -5z m-201 -92 c-4 -11 -1 -12 14 -6 35 14 64 17 64 6 0 -6 -12 -14
-26 -17 -15 -4 -22 -10 -16 -16 5 -5 19 -5 33 0 34 13 55 4 32 -14 -27 -20
-71 -17 -85 6 -7 11 -20 20 -29 20 -17 0 -42 23 -35 31 2 2 15 4 29 4 17 0 23
-4 19 -14z m103 -1 c3 -5 1 -10 -4 -10 -6 0 -11 5 -11 10 0 6 2 10 4 10 3 0 8
-4 11 -10z m-145 -20 c8 -5 11 -12 8 -16 -10 -9 -38 3 -38 16 0 12 10 13 30 0z
m-41 -206 c34 -43 26 -64 -9 -26 -16 18 -30 37 -30 43 0 17 18 9 39 -17z m161
-60 c0 -8 -4 -12 -10 -9 -5 3 -10 10 -10 16 0 5 5 9 10 9 6 0 10 -7 10 -16z
m-1586 -125 c21 -11 50 -33 65 -48 31 -32 89 -75 114 -84 9 -3 17 -11 17 -17
0 -21 31 -9 41 16 12 33 24 24 15 -11 -4 -16 -13 -25 -26 -25 -23 0 -26 -10
-8 -28 8 -8 8 -15 0 -25 -6 -7 -9 -31 -7 -54 4 -35 1 -42 -21 -52 -14 -6 -43
-11 -64 -11 -38 0 -40 2 -66 58 -15 31 -53 91 -84 132 -31 41 -62 90 -70 109
-12 30 -12 35 5 47 26 19 44 18 89 -7z m73 -5 c-3 -3 -12 -4 -19 -1 -8 3 -5 6
6 6 11 1 17 -2 13 -5z m154 -107 c-16 -16 -26 0 -10 19 9 11 15 12 17 4 2 -6
-1 -17 -7 -23z m-95 -274 c-10 -10 -19 5 -10 18 6 11 8 11 12 0 2 -7 1 -15 -2
-18z m31 -15 c-3 -7 -5 -2 -5 12 0 14 2 19 5 13 2 -7 2 -19 0 -25z m766 5
c-15 -5 -18 -43 -3 -43 5 0 14 8 19 18 10 16 10 16 11 0 0 -10 7 -18 15 -18
19 0 19 -8 0 -55 -16 -37 -72 -105 -87 -105 -4 0 -8 27 -8 60 0 33 4 60 10 60
6 0 10 15 10 33 0 33 15 58 35 56 5 0 4 -3 -2 -6z m-853 -62 c-7 -14 -7 -21 0
-21 5 0 10 7 10 15 0 8 4 15 10 15 5 0 16 12 23 26 l14 27 7 -27 c4 -17 13
-26 26 -26 24 0 27 -25 4 -34 -8 -3 -12 -10 -9 -16 4 -6 17 -4 35 5 38 20 43
19 31 -4 -6 -10 -8 -21 -5 -24 3 -3 -3 -3 -15 0 -26 7 -27 -11 -2 -29 17 -12
19 -23 14 -121 -5 -94 -8 -107 -24 -107 -33 0 -30 -18 6 -31 l35 -13 0 -106
c0 -58 2 -138 3 -177 3 -89 13 -88 -178 -32 -77 23 -167 47 -200 55 -33 8 -73
19 -90 23 -16 5 -86 24 -155 42 -69 18 -135 40 -146 49 -21 16 -21 17 -4 40 9
12 22 20 28 16 6 -4 8 1 5 13 -7 27 17 38 34 15 23 -32 117 -125 136 -136 10
-5 21 -7 24 -4 5 4 -3 15 -34 51 -7 7 -13 18 -13 24 0 6 -4 11 -8 11 -5 0 -14
11 -22 24 -11 22 -10 27 19 55 17 17 36 31 41 31 5 0 11 10 13 23 3 17 5 16 6
-8 l2 -30 14 25 c13 24 14 23 8 -15 -3 -22 -10 -42 -14 -45 -5 -4 -11 -22 -14
-40 l-6 -35 18 33 c9 18 22 31 28 28 7 -2 30 30 52 72 22 42 45 78 51 80 5 1
20 -14 33 -35 49 -79 129 -150 129 -113 0 6 -4 10 -9 10 -10 0 -44 69 -60 120
-6 19 -9 58 -8 86 2 45 3 48 17 34 8 -9 38 -35 65 -56 106 -85 139 -92 78 -17
-20 24 -47 67 -60 95 l-23 50 20 46 c11 25 18 55 15 66 -5 17 -4 18 5 6 9 -13
12 -12 25 4 8 11 16 27 16 35 1 9 4 6 6 -6 2 -12 -1 -31 -7 -42z m2120 4 c0
-8 -4 -15 -10 -15 -5 0 -10 7 -10 15 0 8 5 15 10 15 6 0 10 -7 10 -15z m-3660
-155 c0 -5 -5 -10 -11 -10 -5 0 -7 5 -4 10 3 6 8 10 11 10 2 0 4 -4 4 -10z
m3641 -23 c-10 -9 -11 -8 -5 6 3 10 9 15 12 12 3 -3 0 -11 -7 -18z m-3687 -39
c-9 -18 -19 -35 -22 -38 -8 -9 10 45 20 58 18 22 19 13 2 -20z m507 -67 l15
-42 33 30 32 30 41 -40 c23 -22 50 -39 63 -39 36 0 55 -26 55 -74 0 -58 -16
-69 -82 -62 -29 3 -115 8 -190 12 l-137 7 6 51 c3 28 10 59 14 68 5 9 9 26 9
37 0 12 4 21 9 21 10 0 20 -46 22 -94 l1 -31 10 35 c17 58 60 141 72 137 6 -2
18 -23 27 -46z m601 -73 c-7 -7 -12 -8 -12 -2 0 6 3 14 7 17 3 4 9 5 12 2 2
-3 -1 -11 -7 -17z m-1205 -50 c-3 -8 -6 -5 -6 6 -1 11 2 17 5 13 3 -3 4 -12 1
-19z m2273 -514 c0 -8 -4 -12 -10 -9 -5 3 -10 10 -10 16 0 5 5 9 10 9 6 0 10
-7 10 -16z m-2013 -36 c-3 -8 -6 -5 -6 6 -1 11 2 17 5 13 3 -3 4 -12 1 -19z
m2063 -67 c0 -5 3 -11 8 -13 13 -6 73 -88 64 -88 -22 0 -104 112 -117 160 -5
20 -2 18 19 -12 14 -20 26 -41 26 -47z m-1460 -251 c0 -5 -2 -10 -4 -10 -3 0
-8 5 -11 10 -3 6 -1 10 4 10 6 0 11 -4 11 -10z m375 -21 c36 -22 77 -64 69
-71 -6 -7 -138 80 -143 94 -5 13 36 1 74 -23z m-1048 -15 c-3 -3 -12 -4 -19
-1 -8 3 -5 6 6 6 11 1 17 -2 13 -5z m474 -37 c-7 -7 -15 -6 -26 3 -10 8 -15 9
-15 1 0 -6 5 -11 10 -11 6 0 10 -4 10 -10 0 -16 -14 -12 -38 10 -12 11 -26 20
-32 20 -6 0 -9 4 -6 9 3 4 28 4 56 -2 35 -7 48 -13 41 -20z m94 -45 c-3 -3
-11 0 -18 7 -9 10 -8 11 6 5 10 -3 15 -9 12 -12z m609 -4 c35 -23 61 -56 52
-65 -8 -8 -96 59 -96 74 0 18 5 17 44 -9z m-96 0 c19 -19 14 -30 -10 -26 -13
2 -24 11 -26 21 -4 20 18 23 36 5z m-88 -48 c-20 -12 -33 -1 -19 16 9 11 15
12 23 4 8 -8 7 -13 -4 -20z m-950 -1 c0 -10 -15 -12 -112 -14 -72 -1 -94 11
-30 17 81 7 142 6 142 -3z m1025 -3 c17 -12 15 -13 -23 -12 -41 1 -49 5 -35
19 11 11 38 8 58 -7z m412 -12 c-3 -3 -12 -4 -19 -1 -8 3 -5 6 6 6 11 1 17 -2
13 -5z m23 -39 c12 -31 47 -34 58 -5 7 20 9 20 34 -9 17 -19 33 -28 45 -25 11
3 27 -3 37 -15 11 -12 16 -21 11 -21 -4 0 -2 -7 5 -15 20 -24 5 -29 -37 -13
-21 9 -43 13 -50 11 -19 -7 -26 18 -8 31 17 12 17 13 1 19 -21 8 -39 0 -31
-14 7 -11 -82 0 -108 13 -12 6 -17 17 -14 29 3 10 0 20 -6 20 -7 1 2 5 18 9
17 4 31 8 33 9 1 0 7 -10 12 -24z m-221 -2 c30 -18 36 -33 14 -40 -10 -4 -19
4 -51 42 -17 20 -1 19 37 -2z m-1616 -23 c3 -11 1 -20 -4 -20 -5 0 -9 4 -9 9
0 5 -3 17 -7 27 -4 11 -3 15 4 11 6 -4 13 -16 16 -27z m200 3 c-7 -2 -19 -2
-25 0 -7 3 -2 5 12 5 14 0 19 -2 13 -5z m975 -12 c30 -5 58 -14 63 -22 11 -18
-7 -25 -25 -10 -13 11 -61 18 -133 20 -18 1 -33 5 -33 10 0 11 39 20 60 14 8
-3 39 -8 68 -12z m-1098 -36 c0 -2 -5 -16 -12 -30 -11 -24 -38 -35 -38 -15 0
6 7 10 15 10 8 0 15 9 15 20 0 11 5 20 10 20 6 0 10 -2 10 -5z m1993 -11 c15
-5 12 -44 -4 -44 -14 0 -20 18 -7 23 10 4 9 8 -2 16 -16 12 -10 14 13 5z
m-878 -24 c-3 -5 -16 -10 -28 -10 -18 0 -19 2 -7 10 20 13 43 13 35 0z m-90
-37 c32 -36 104 -122 132 -158 13 -16 20 -31 18 -34 -5 -5 -22 12 -100 101
-85 98 -99 110 -111 100 -4 -4 -4 -1 0 6 12 20 35 14 61 -15z m225 7 c0 -5 -4
-10 -10 -10 -5 0 -10 5 -10 10 0 6 5 10 10 10 6 0 10 -4 10 -10z m864 -20 c21
-19 41 -50 51 -81 10 -29 21 -47 27 -43 7 4 8 2 4 -5 -4 -6 2 -24 13 -40 37
-51 22 -56 -27 -11 -18 16 -30 34 -27 40 3 5 0 10 -8 10 -9 0 -17 14 -20 35
-3 19 -17 49 -30 67 -49 67 -42 79 17 28z m-874 -21 c0 -3 -16 -6 -35 -7 -32
-1 -46 13 -29 30 6 7 64 -14 64 -23z m745 0 c36 -17 65 -35 65 -40 0 -5 7 -9
15 -9 20 0 19 -17 -2 -30 -15 -9 -13 -10 14 -7 28 3 30 1 23 -19 -7 -16 -4
-26 11 -40 10 -9 19 -23 19 -31 0 -7 8 -13 18 -14 14 0 14 -2 -3 -9 -15 -6
-25 -1 -41 18 -12 15 -20 32 -17 38 2 7 0 15 -6 19 -6 3 -11 0 -11 -7 0 -8 -9
-14 -20 -14 -13 0 -18 5 -15 16 3 9 -15 32 -47 60 -72 64 -88 82 -82 92 7 11
6 12 79 -23z m-1065 -4 c0 -9 11 -26 25 -39 l25 -23 -27 -28 -28 -27 29 -23
c16 -13 25 -28 22 -34 -10 -15 -46 5 -46 25 0 9 -7 23 -16 31 -15 15 -14 18
10 30 32 17 36 48 5 40 -15 -4 -19 -2 -15 8 3 8 0 15 -6 17 -14 5 -3 38 12 38
5 0 10 -7 10 -15z m-40 -5 c0 -5 -7 -10 -16 -10 -8 0 -12 5 -9 10 3 6 10 10
16 10 5 0 9 -4 9 -10z m426 -22 c4 -7 4 -10 -1 -6 -12 11 -35 -11 -35 -33 0
-22 -15 -25 -23 -5 -3 8 1 20 8 26 8 7 12 16 9 21 -3 5 4 9 15 9 11 0 23 -6
27 -12z m44 2 c0 -6 12 -15 28 -21 17 -7 22 -13 13 -16 -7 -3 -25 6 -39 21
-15 14 -21 26 -14 26 6 0 12 -5 12 -10z m470 -55 c5 3 10 1 10 -6 0 -7 9 -23
21 -35 21 -23 18 -51 -4 -37 -7 4 -19 8 -27 8 -8 0 -16 11 -18 25 -2 14 -8 29
-13 35 -15 15 -10 28 6 15 8 -6 19 -9 25 -5z m-507 -40 c-19 -25 -43 -33 -43
-14 0 14 43 49 52 42 5 -2 0 -15 -9 -28z m957 15 c5 0 24 -15 43 -34 20 -19
38 -32 41 -29 2 3 2 -4 -1 -16 -4 -15 -1 -21 11 -21 9 0 16 -7 16 -15 0 -8 -6
-15 -14 -15 -8 0 -16 7 -20 15 -3 8 -11 15 -18 15 -7 1 -26 19 -43 41 -16 22
-37 47 -45 56 -14 15 -13 16 3 10 10 -4 22 -7 27 -7z m-667 -30 c23 0 29 -16
12 -30 -12 -10 -13 -16 -4 -26 6 -8 16 -11 21 -8 6 4 5 10 -3 15 -11 7 -10 9
4 9 9 0 17 -5 17 -12 0 -7 21 -31 46 -54 38 -35 44 -46 36 -60 -7 -12 -7 -25
-1 -36 14 -25 1 -41 -27 -34 -18 5 -22 3 -18 -9 4 -9 15 -20 25 -26 11 -5 17
-14 14 -20 -4 -5 -1 -9 4 -9 6 0 11 -7 11 -15 0 -7 6 -18 13 -22 16 -11 40
-54 33 -61 -3 -3 -14 2 -24 11 -10 10 -26 17 -35 17 -10 0 -14 6 -11 14 3 8 1
17 -5 21 -6 3 -11 0 -11 -7 0 -7 -9 -2 -19 11 -12 16 -20 20 -25 12 -4 -6 -12
-9 -17 -5 -5 3 -6 10 -3 16 4 6 8 24 9 39 2 23 -3 30 -26 38 -16 5 -29 15 -29
21 0 11 -34 62 -57 88 -17 17 -16 22 2 22 8 0 22 -16 31 -36 12 -26 19 -32 25
-22 7 10 9 9 9 -4 0 -10 5 -18 11 -18 6 0 8 -7 5 -16 -5 -13 -2 -15 13 -11 11
3 22 0 24 -6 1 -5 9 -8 16 -6 15 5 -47 88 -66 88 -7 1 -13 7 -13 14 0 8 -11
24 -25 37 -14 13 -23 26 -20 28 3 3 -7 14 -22 24 l-28 18 26 0 c19 0 28 6 33
23 6 21 7 21 20 5 7 -10 20 -18 29 -18z m57 -16 c0 -24 -17 -15 -22 11 -4 20
-3 23 8 14 8 -6 14 -18 14 -25z m-820 6 c0 -5 -4 -10 -10 -10 -5 0 -10 5 -10
10 0 6 5 10 10 10 6 0 10 -4 10 -10z m60 0 c0 -13 -11 -13 -30 0 -12 8 -11 10
8 10 12 0 22 -4 22 -10z m844 -40 c7 0 20 -6 30 -13 16 -12 17 -16 5 -35 -15
-25 -59 -30 -59 -8 0 8 6 18 12 22 9 6 5 10 -12 14 -17 4 -24 12 -23 28 2 37
2 37 19 14 8 -12 21 -22 28 -22z m-54 9 c0 -5 -4 -9 -10 -9 -5 0 -10 7 -10 16
0 8 5 12 10 9 6 -3 10 -10 10 -16z m-480 -4 c11 -13 10 -14 -4 -9 -9 3 -16 10
-16 15 0 13 6 11 20 -6z m-333 -10 c8 -9 14 -18 11 -20 -8 -8 -47 7 -52 21 -7
19 21 18 41 -1z m508 -25 c-3 -5 -13 -10 -21 -10 -8 0 -14 5 -14 10 0 6 9 10
21 10 11 0 17 -4 14 -10z m455 -55 c0 -12 -19 -12 -23 0 -4 9 -1 12 9 8 7 -3
14 -7 14 -8z m590 7 c0 -4 -10 -9 -22 -9 -18 -2 -20 0 -8 7 18 12 30 13 30 2z
m-525 -20 c0 -18 -20 -15 -23 4 -3 10 1 15 10 12 7 -3 13 -10 13 -16z m965 3
c41 -6 95 -17 144 -32 13 -4 16 -1 11 7 -5 9 -4 11 4 6 6 -4 9 -11 6 -15 -2
-5 11 -17 30 -27 29 -15 53 -42 43 -49 -2 -1 -48 -8 -103 -17 -66 -10 -106
-12 -118 -6 -24 13 -69 2 -112 -28 -41 -27 -60 -21 -90 29 l-18 30 27 -5 c20
-4 26 -1 26 13 0 10 8 23 18 28 16 10 15 10 -3 11 -11 0 -16 3 -10 8 6 4 11
16 10 27 0 28 14 36 55 30 19 -2 55 -7 80 -10z m-1440 -10 c0 -8 5 -15 11 -15
13 0 51 -38 76 -76 28 -43 -2 -25 -60 36 -31 34 -57 63 -57 65 0 3 7 5 15 5 8
0 15 -7 15 -15z m380 -67 c0 -5 -9 -4 -20 2 -11 6 -20 12 -20 14 0 2 9 2 20
-1 11 -3 20 -9 20 -15z m-20 -62 c0 -13 -23 -5 -35 11 -21 29 -6 47 16 19 10
-13 19 -27 19 -30z m609 -18 c8 -18 19 -36 25 -40 8 -5 7 -11 -1 -19 -8 -8
-18 -1 -38 30 -23 38 -26 61 -7 61 4 0 13 -15 21 -32z m-599 -8 c0 -5 -4 -10
-10 -10 -5 0 -10 5 -10 10 0 6 5 10 10 10 6 0 10 -4 10 -10z m814 -42 c6 -4
21 -8 34 -8 12 0 22 -5 22 -10 0 -7 13 -8 34 -5 29 6 36 3 46 -15 16 -30 7
-35 -29 -14 -22 13 -34 15 -42 7 -12 -12 17 -47 32 -38 5 4 6 -1 3 -10 -5 -11
-2 -14 12 -8 14 5 16 3 11 -11 -4 -11 -3 -15 4 -10 6 4 15 0 20 -7 12 -20 11
-37 -2 -19 -8 12 -10 9 -6 -12 4 -28 -6 -38 -18 -18 -11 18 -26 10 -20 -10 5
-16 2 -20 -14 -20 -14 0 -23 9 -27 26 -4 14 -17 30 -30 34 -27 11 -33 39 -8
36 9 0 19 5 22 13 3 10 0 12 -12 8 -12 -5 -20 3 -31 28 -8 20 -18 34 -22 33
-15 -3 -98 25 -113 39 -13 13 -12 14 10 9 87 -17 100 -17 101 1 0 14 2 15 6 3
3 -8 11 -18 17 -22z m-989 -8 c12 -19 -12 -10 -31 11 -19 22 -19 22 3 10 12
-6 25 -16 28 -21z m1565 0 c7 -14 8 -45 1 -102 -11 -86 -9 -136 7 -165 6 -10
6 -22 0 -32 -11 -18 5 -71 22 -71 5 0 10 -5 10 -11 0 -6 -6 -9 -14 -6 -8 3
-22 -1 -33 -8 -10 -8 -21 -15 -25 -15 -11 0 -36 85 -33 113 2 15 -1 29 -6 33
-15 9 -10 143 7 203 9 31 18 62 20 69 5 19 32 14 44 -8z m-1270 -6 c0 -8 6
-11 16 -7 10 4 17 -1 20 -14 3 -11 17 -27 31 -34 13 -7 33 -32 43 -55 11 -23
27 -44 35 -48 9 -3 13 -11 9 -17 -4 -7 1 -18 11 -25 10 -7 15 -19 12 -27 -3
-8 0 -20 6 -26 8 -8 8 -14 0 -22 -8 -8 -20 7 -45 57 -51 104 -48 101 -89 102
-21 1 -41 -3 -44 -8 -9 -14 -35 -12 -35 3 0 6 13 18 29 25 27 12 29 15 19 43
-6 17 -19 36 -29 42 -23 14 -24 24 -4 24 8 0 15 -6 15 -13z m535 -34 c3 -5 1
-10 -4 -10 -6 0 -11 5 -11 10 0 6 2 10 4 10 3 0 8 -4 11 -10z m-304 -37 c9
-10 26 -25 38 -33 13 -8 27 -25 32 -38 7 -18 14 -22 32 -18 12 3 17 3 11 0 -7
-3 -10 -13 -7 -23 3 -11 -2 -21 -11 -24 -11 -5 -16 -1 -16 13 0 11 -5 20 -12
20 -6 0 -9 3 -6 6 7 7 -70 84 -83 84 -5 0 -9 7 -9 15 0 20 12 19 31 -2z m13
-78 c11 -8 16 -15 10 -15 -5 0 -18 7 -28 15 -11 8 -16 15 -10 15 5 0 18 -7 28
-15z m-164 -45 c0 -5 -7 -10 -15 -10 -8 0 -15 5 -15 10 0 6 7 10 15 10 8 0 15
-4 15 -10z m19 -63 c1 -5 -3 -5 -9 -2 -5 3 -10 16 -9 28 0 21 1 21 9 2 5 -11
9 -24 9 -28z m21 -37 c0 -5 -4 -10 -10 -10 -5 0 -10 5 -10 10 0 6 5 10 10 10
6 0 10 -4 10 -10z m1364 -6 c3 -8 2 -12 -4 -9 -6 3 -10 10 -10 16 0 14 7 11
14 -7z m-537 -31 c4 -10 10 -20 13 -23 4 -3 4 -14 -1 -25 -6 -15 -8 -16 -8 -4
-1 9 -7 19 -15 22 -8 3 -14 15 -13 26 2 26 15 27 24 4z m99 -10 c28 -42 85
-155 81 -160 -2 -2 -23 14 -47 36 -35 31 -42 44 -38 65 3 14 1 26 -3 26 -5 0
-9 11 -9 25 0 19 -4 23 -17 18 -11 -4 -14 -3 -9 5 11 18 22 14 42 -15z m314
-39 c0 -8 -4 -12 -10 -9 -5 3 -10 13 -10 21 0 8 5 12 10 9 6 -3 10 -13 10 -21z
m-332 -8 c3 -15 1 -16 -17 -6 -12 6 -19 16 -15 21 9 15 28 5 32 -15z m22 -86
c0 -5 -4 -10 -10 -10 -5 0 -10 5 -10 10 0 6 5 10 10 10 6 0 10 -4 10 -10z"/>
<path d="M2216 2825 c-3 -8 -1 -15 4 -15 6 0 10 7 10 15 0 8 -2 15 -4 15 -2 0
-6 -7 -10 -15z"/>
<path d="M2327 1269 c7 -7 15 -10 18 -7 3 3 -2 9 -12 12 -14 6 -15 5 -6 -5z"/>
<path d="M2105 880 c3 -5 10 -10 16 -10 5 0 9 5 9 10 0 6 -7 10 -16 10 -8 0
-12 -4 -9 -10z"/>
<path d="M3090 541 c0 -5 5 -13 10 -16 6 -3 10 -2 10 4 0 5 -4 13 -10 16 -5 3
-10 2 -10 -4z"/>
<path d="M3590 355 c0 -8 2 -15 4 -15 2 0 6 7 10 15 3 8 1 15 -4 15 -6 0 -10
-7 -10 -15z"/>
<path d="M4430 4700 c0 -5 5 -10 10 -10 6 0 10 5 10 10 0 6 -4 10 -10 10 -5 0
-10 -4 -10 -10z"/>
<path d="M4435 4670 c5 -8 8 -23 7 -33 -2 -10 1 -24 6 -30 5 -7 26 -65 46
-129 21 -65 39 -118 41 -118 2 0 2 32 0 72 -5 82 -28 152 -62 189 -13 14 -21
28 -18 31 3 3 -2 11 -12 19 -15 12 -16 12 -8 -1z"/>
<path d="M790 4400 c-8 -5 -12 -11 -9 -14 2 -3 11 -1 19 4 8 5 12 11 9 14 -2
3 -11 1 -19 -4z"/>
<path d="M685 4110 c-10 -12 -13 -20 -7 -20 7 0 12 4 12 9 0 5 8 11 18 13 11
2 13 6 6 10 -6 4 -19 -1 -29 -12z"/>
<path d="M587 3963 c-4 -3 -7 -13 -7 -22 1 -13 3 -13 11 2 11 19 8 33 -4 20z"/>
<path d="M4705 3790 c-3 -5 -1 -10 4 -10 6 0 11 5 11 10 0 6 -2 10 -4 10 -3 0
-8 -4 -11 -10z"/>
<path d="M3570 3120 c-12 -8 -10 -10 8 -10 13 0 20 4 17 10 -7 12 -6 12 -25 0z"/>
<path d="M4320 3004 c0 -8 5 -12 10 -9 6 3 10 10 10 16 0 5 -4 9 -10 9 -5 0
-10 -7 -10 -16z"/>
<path d="M4443 2634 c-10 -10 -10 -16 2 -28 8 -8 15 -19 15 -24 0 -13 25 -33
33 -26 6 6 -9 46 -28 75 -8 14 -12 14 -22 3z"/>
<path d="M4450 2416 c0 -2 7 -7 16 -10 8 -3 12 -2 9 4 -6 10 -25 14 -25 6z"/>
<path d="M3008 2253 c7 -3 16 -2 19 1 4 3 -2 6 -13 5 -11 0 -14 -3 -6 -6z"/>
<path d="M3662 804 c-11 -12 -8 -22 21 -63 26 -36 32 -52 24 -60 -6 -6 -7 -11
-1 -11 19 0 35 39 24 60 -6 11 -8 24 -6 29 3 5 -1 11 -9 15 -8 3 -15 10 -15
16 0 6 6 8 13 5 6 -4 3 1 -7 9 -24 19 -27 19 -44 0z"/>
<path d="M4040 67 c0 -17 21 -57 30 -57 17 0 11 26 -10 45 -11 10 -20 15 -20
12z"/>
</g>
</svg>
